<svg width="500" height="154" viewBox="0 0 500 154" fill="none" xmlns="http://www.w3.org/2000/svg">
  <path
    d="M0 111.326L0.484027 33.3979H21.7812V37.7541C38.0445 31.9458 51.7909 39.2062 56.6312 43.5624C66.3117 34.3659 85.1888 32.4298 95.8374 38.7222C110.842 47.5886 112.778 60.5034 112.778 70.1839V111.326H91.9651V70.1839C91.9651 65.3436 90.2236 60.7152 87.6089 59.0513C82.2846 55.6631 76.9603 55.6631 72.12 58.5673C68.2478 60.8906 67.2798 67.2798 67.2798 70.6679V111.326H45.9826V70.6679C45.9826 65.8277 44.5305 61.9555 42.1104 59.0513C39.5922 56.0295 31.6924 54.0265 26.6215 58.0832C21.7812 61.9555 21.2972 67.2798 21.2972 70.6679V111.326H0Z"
    fill="currentColor" />
  <path d="M132.139 38.7222L153.437 30.9777V111.326H132.139V38.7222Z" fill="currentColor" />
  <path
    d="M246.37 72.1201C246.37 93.773 228.817 111.326 207.164 111.326C185.511 111.326 167.957 93.773 167.957 72.1201C167.957 50.4671 185.511 32.9139 207.164 32.9139C228.817 32.9139 246.37 50.4671 246.37 72.1201ZM189.427 72.1201C189.427 81.9155 197.368 89.8563 207.164 89.8563C216.959 89.8563 224.9 81.9155 224.9 72.1201C224.9 62.3246 216.959 54.3838 207.164 54.3838C197.368 54.3838 189.427 62.3246 189.427 72.1201Z"
    fill="currentColor" />
  <path
    d="M195.547 130.203C206.68 110.842 185.382 109.874 176.67 96.3214H237.657C229.913 108.906 207.164 110.842 218.78 130.203H195.547Z"
    fill="currentColor" />
  <path
    d="M221.684 138.916C221.684 146.935 215.183 153.437 207.164 153.437C199.144 153.437 192.643 146.935 192.643 138.916C192.643 130.896 199.144 124.395 207.164 124.395C215.183 124.395 221.684 130.896 221.684 138.916Z"
    fill="currentColor" />
  <path d="M260.891 6.77638L281.704 0L282.188 111.326H260.891V6.77638Z" fill="currentColor" />
  <path d="M301.549 38.7222L322.846 30.9777V111.326H301.549V38.7222Z" fill="currentColor" />
  <path
    d="M413.695 94.3689C408.961 101.238 402.158 106.418 394.277 109.156C386.396 111.893 377.847 112.045 369.874 109.59C361.9 107.134 354.918 102.199 349.943 95.502C344.967 88.8051 342.257 80.6956 342.208 72.3528C342.158 64.01 344.771 55.8689 349.667 49.1134C354.563 42.3579 361.486 37.3403 369.43 34.7902C377.373 32.2401 385.923 32.2906 393.837 34.9342C401.75 37.5778 408.613 42.6768 413.429 49.4895L395.897 61.8824C393.718 58.8004 390.613 56.4937 387.033 55.2978C383.454 54.1019 379.586 54.0791 375.992 55.2327C372.399 56.3863 369.267 58.6562 367.052 61.7122C364.837 64.7683 363.655 68.4512 363.677 72.2254C363.7 75.9995 364.926 79.6681 367.177 82.6977C369.427 85.7272 372.586 87.9598 376.193 89.0706C379.8 90.1815 383.667 90.1128 387.233 88.8744C390.798 87.6361 393.875 85.2927 396.017 82.185L413.695 94.3689Z"
    fill="currentColor" />
  <path
    d="M499.032 72.1201C499.032 93.7731 481.479 111.326 459.826 111.326C438.173 111.326 420.62 93.7731 420.62 72.1201C420.62 50.4671 438.173 32.9139 459.826 32.9139C481.479 32.9139 499.032 50.4671 499.032 72.1201ZM442.09 72.1201C442.09 81.9155 450.03 89.8563 459.826 89.8563C469.621 89.8563 477.562 81.9155 477.562 72.1201C477.562 62.3246 469.621 54.3839 459.826 54.3839C450.03 54.3839 442.09 62.3246 442.09 72.1201Z"
    fill="currentColor" />
  <rect x="478.703" y="31.9457" width="21.2972" height="78.4124" fill="currentColor" />
</svg>