<svg width="29" height="24" viewBox="0 0 29 24" fill="none" xmlns="http://www.w3.org/2000/svg">
<path d="M28.6754 2.00023V22C28.6754 23.135 27.9033 24 26.8901 24H25.1047V5.84919L14.3926 14.4691L3.68045 5.84919V24H1.8951C0.881908 24 0.109741 23.135 0.109741 22V2.00023C0.109741 1.43224 0.300774 0.932242 0.621246 0.578246C0.788152 0.391175 0.986931 0.243606 1.20577 0.144313C1.4246 0.0450196 1.65902 -0.0039718 1.8951 0.000251572H2.49051L14.3926 9.66715L26.2947 0.000251572H26.8901C27.3971 0.000251572 27.8435 0.214249 28.1639 0.578246C28.4844 0.932242 28.6754 1.43224 28.6754 2.00023Z" fill="#FAFCFF"/>
</svg>
