<svg width="25" height="24" viewBox="0 0 25 24" fill="none" xmlns="http://www.w3.org/2000/svg">
<path d="M12.0611 0C8.78231 0 8.37369 0.015752 7.09054 0.0697587C5.8021 0.132767 4.93058 0.331541 4.16159 0.628579C3.35676 0.930882 2.62788 1.40419 2.02576 2.0155C1.40962 2.61317 0.933641 3.33877 0.631778 4.14052C0.333229 4.90561 0.133442 5.77272 0.0701138 7.05463C0.0120626 8.33204 0 8.73784 0 12C0 15.2622 0.0158321 15.6687 0.0701138 16.9454C0.133442 18.2235 0.333229 19.0944 0.631778 19.8595C0.935619 20.6602 1.41133 21.3854 2.02576 21.9845C2.62647 22.5975 3.35576 23.0711 4.16159 23.3714C4.93058 23.6647 5.80587 23.8672 7.09054 23.9302C8.37445 23.988 8.78231 24 12.0611 24C15.3398 24 15.7485 23.9842 17.0316 23.9302C18.3163 23.8672 19.1916 23.664 19.9606 23.3714C20.7654 23.0691 21.4943 22.5958 22.0964 21.9845C22.7133 21.3875 23.1894 20.6617 23.4904 19.8595C23.7851 19.0944 23.9887 18.2235 24.052 16.9454C24.1101 15.668 24.1221 15.2622 24.1221 12C24.1221 8.73784 24.1063 8.33129 24.052 7.05463C23.9887 5.77647 23.7844 4.90111 23.4904 4.14052C23.1865 3.33976 22.7108 2.61457 22.0964 2.0155C21.4963 1.40169 20.7669 0.928001 19.9606 0.628579C19.1916 0.331541 18.3163 0.132767 17.0316 0.0697587C15.7477 0.0120015 15.3398 0 12.0611 0ZM12.0611 2.16027C15.281 2.16027 15.6655 2.17602 16.9381 2.23003C18.112 2.28479 18.7513 2.47981 19.1757 2.64483C19.7005 2.83755 20.1754 3.14428 20.5659 3.54269C20.9657 3.92961 21.2728 4.40106 21.4646 4.92212C21.6305 5.34442 21.8265 5.9805 21.8815 7.14839C21.9358 8.41455 21.9516 8.79785 21.9516 12.0007C21.9516 15.2037 21.9358 15.5869 21.877 16.8531C21.8137 18.021 21.6177 18.6571 21.4525 19.0794C21.2241 19.6427 20.9693 20.0365 20.5486 20.4626C20.1568 20.8585 19.6821 21.1637 19.1584 21.3567C18.7392 21.5217 18.0909 21.7167 16.9125 21.7715C15.6331 21.8255 15.2561 21.8412 12.0279 21.8412C8.79965 21.8412 8.42345 21.8255 7.14256 21.767C5.96872 21.704 5.32111 21.5089 4.89665 21.3447C4.32368 21.1174 3.93089 20.8639 3.51021 20.4453C3.08576 20.023 2.81586 19.621 2.60778 19.0621C2.4389 18.6451 2.2459 18 2.18333 16.8276C2.14035 15.5697 2.12 15.1796 2.12 11.9827C2.12 8.78735 2.14035 8.39655 2.18333 7.12289C2.2459 5.95049 2.4389 5.30691 2.60778 4.88836C2.81586 4.31754 3.08651 3.92749 3.51021 3.50519C3.93014 3.08739 4.32368 2.81735 4.89665 2.60583C5.32111 2.44156 5.95288 2.24653 7.13125 2.18802C8.41064 2.14227 8.78759 2.12577 12.0113 2.12577L12.0611 2.16027ZM12.0611 5.84098C11.2479 5.84068 10.4426 5.99983 9.69119 6.30932C8.93983 6.61881 8.25712 7.07258 7.6821 7.6447C7.10707 8.21681 6.65099 8.89606 6.33992 9.64362C6.02886 10.3912 5.8689 11.1924 5.8692 12.0015C5.8689 12.8106 6.02886 13.6118 6.33992 14.3594C6.65099 15.1069 7.10707 15.7862 7.6821 16.3583C8.25712 16.9304 8.93983 17.3842 9.69119 17.6937C10.4426 18.0032 11.2479 18.1623 12.0611 18.162C12.8743 18.1623 13.6796 18.0032 14.431 17.6937C15.1823 17.3842 15.865 16.9304 16.4401 16.3583C17.0151 15.7862 17.4712 15.1069 17.7822 14.3594C18.0933 13.6118 18.2532 12.8106 18.2529 12.0015C18.2532 11.1924 18.0933 10.3912 17.7822 9.64362C17.4712 8.89606 17.0151 8.21681 16.4401 7.6447C15.865 7.07258 15.1823 6.61881 14.431 6.30932C13.6796 5.99983 12.8743 5.84068 12.0611 5.84098V5.84098ZM12.0611 16.0018C9.83854 16.0018 8.04046 14.2128 8.04046 12.0015C8.04046 9.79022 9.83854 8.00125 12.0611 8.00125C14.2836 8.00125 16.0817 9.79022 16.0817 12.0015C16.0817 14.2128 14.2836 16.0018 12.0611 16.0018ZM19.95 5.59495C19.9496 5.97725 19.7967 6.34375 19.5248 6.61393C19.253 6.88412 18.8845 7.03588 18.5002 7.03588C18.3102 7.03588 18.1221 6.99865 17.9466 6.92631C17.7711 6.85397 17.6116 6.74794 17.4772 6.61428C17.3429 6.48062 17.2363 6.32194 17.1636 6.1473C17.0909 5.97266 17.0535 5.78548 17.0535 5.59645C17.0535 5.40742 17.0909 5.22024 17.1636 5.0456C17.2363 4.87096 17.3429 4.71228 17.4772 4.57862C17.6116 4.44496 17.7711 4.33893 17.9466 4.26659C18.1221 4.19425 18.3102 4.15702 18.5002 4.15702C19.2971 4.15702 19.95 4.8021 19.95 5.59495V5.59495Z" fill="#FAFCFF"/>
</svg>
