<svg width="25" height="24" viewBox="0 0 25 24" fill="none" xmlns="http://www.w3.org/2000/svg">
<path d="M19.6755 11H5.67554C4.57097 11 3.67554 11.8954 3.67554 13V20C3.67554 21.1046 4.57097 22 5.67554 22H19.6755C20.7801 22 21.6755 21.1046 21.6755 20V13C21.6755 11.8954 20.7801 11 19.6755 11Z" stroke="#FAFCFF" stroke-width="2" stroke-linecap="round" stroke-linejoin="round"/>
<path d="M7.67554 11V7C7.67554 5.67392 8.20232 4.40215 9.14 3.46447C10.0777 2.52678 11.3495 2 12.6755 2C14.0016 2 15.2734 2.52678 16.2111 3.46447C17.1488 4.40215 17.6755 5.67392 17.6755 7V11" stroke="#FAFCFF" stroke-width="2" stroke-linecap="round" stroke-linejoin="round"/>
</svg>
