<svg width="153" height="154" viewBox="0 0 153 154" fill="none" xmlns="http://www.w3.org/2000/svg">
<path d="M22.1394 28.7222L43.4366 20.9777V101.326H22.1394V28.7222Z" fill="currentColor"/>
<path d="M136.37 62.1201C136.37 83.773 118.817 101.326 97.1636 101.326C75.5106 101.326 57.9574 83.773 57.9574 62.1201C57.9574 40.4671 75.5106 22.9139 97.1636 22.9139C118.817 22.9139 136.37 40.4671 136.37 62.1201ZM79.4274 62.1201C79.4274 71.9155 87.3682 79.8563 97.1636 79.8563C106.959 79.8563 114.9 71.9155 114.9 62.1201C114.9 52.3246 106.959 44.3838 97.1636 44.3838C87.3682 44.3838 79.4274 52.3246 79.4274 62.1201Z" fill="currentColor"/>
<path d="M85.547 120.203C96.6796 100.842 75.3824 99.8742 66.6699 86.3214H127.657C119.913 98.9061 97.1636 100.842 108.78 120.203H85.547Z" fill="currentColor"/>
<path d="M111.684 128.916C111.684 136.935 105.183 143.437 97.1636 143.437C89.144 143.437 82.6428 136.935 82.6428 128.916C82.6428 120.896 89.144 114.395 97.1636 114.395C105.183 114.395 111.684 120.896 111.684 128.916Z" fill="currentColor"/>
</svg>
